<svg width="170" height="24" viewBox="0 0 170 24" fill="none" xmlns="http://www.w3.org/2000/svg">
<path fill-rule="evenodd" clip-rule="evenodd" d="M118.393 23.6108V0.38916H121.489V23.6108H118.393Z" fill="#757575"/>
<path fill-rule="evenodd" clip-rule="evenodd" d="M18.7793 23.6108V0.38916H21.8757V23.6108H18.7793Z" fill="#1DA1F2"/>
<path fill-rule="evenodd" clip-rule="evenodd" d="M0 23.6109V20.8866H3.09645H14.4772H14.5696V23.6109H0ZM0 18.1228V0.38916H3.09645V18.1228H0Z" fill="#1DA1F2"/>
<path fill-rule="evenodd" clip-rule="evenodd" d="M27.2812 23.6109V5.23253L30.2473 9.76077V23.6109H27.2812ZM27.2812 0.38916H30.4537L42.6982 18.6162V0.38916H45.6643V23.6109H42.4919L27.2812 0.38916Z" fill="#1DA1F2"/>
<path fill-rule="evenodd" clip-rule="evenodd" d="M72.6572 23.6109V20.8866H75.7537H84.8512H90.0625V23.6109H72.6572ZM72.6572 18.1621V10.2486H75.7537H85.3472H88.6284V12.973H75.7537V18.1621H72.6572ZM72.6572 7.52425V0.38916H89.5084V3.11349H75.7537V7.52425H72.6572Z" fill="#1DA1F2"/>
<path fill-rule="evenodd" clip-rule="evenodd" d="M94.333 23.6109V5.83787H97.4295V20.8866H102.405C103.943 20.8866 105.149 20.746 106.023 20.4595C106.898 20.173 107.593 19.773 108.115 19.2541C108.843 18.5243 109.413 17.5406 109.821 16.3081C110.228 15.0757 110.434 13.5838 110.434 11.827C110.434 9.39467 110.032 7.5243 109.234 6.21621C108.435 4.90812 107.463 4.03245 106.317 3.58919C105.491 3.27021 104.16 3.11349 102.324 3.11349H98.6455H97.4295H94.333V0.38916H102.373C104.187 0.38916 105.573 0.497293 106.529 0.718958C107.865 1.02703 109.006 1.58379 109.951 2.38378C111.184 3.42168 112.102 4.74054 112.711 6.35131C113.324 7.9622 113.629 9.80541 113.629 11.8757C113.629 13.6379 113.422 15.2 113.009 16.5622C112.597 17.9243 112.064 19.0541 111.418 19.946C110.766 20.8378 110.06 21.5406 109.288 22.0487C108.522 22.5622 107.593 22.9514 106.507 23.2163C105.415 23.4811 104.166 23.6109 102.753 23.6109H94.333Z" fill="#1DA1F2"/>
<path fill-rule="evenodd" clip-rule="evenodd" d="M126.051 10.6378C126.316 7.5764 127.335 5.11758 129.105 3.26484C131.185 1.08649 133.869 0 137.161 0C139.317 0 141.257 0.513445 142.99 1.5351C144.717 2.55671 146.037 3.98379 146.944 5.81616C147.665 7.26746 148.101 8.87552 148.25 10.6378H145.051C144.93 9.32221 144.63 8.13941 144.152 7.09185C143.511 5.68644 142.571 4.59452 141.338 3.8216C140.1 3.04863 138.714 2.65938 137.177 2.65938C134.993 2.65938 133.114 3.40533 131.538 4.89725C130.236 6.13038 129.472 8.04292 129.246 10.6378H126.051ZM148.255 13.3622C148.107 15.1875 147.647 16.8524 146.874 18.3513C145.918 20.2108 144.565 21.6162 142.816 22.5675C141.061 23.5243 139.171 24 137.144 24C134.944 24 132.983 23.4703 131.25 22.4162C129.523 21.3622 128.208 19.9243 127.317 18.0973C126.582 16.5927 126.15 15.0143 126.021 13.3622H129.209C129.372 15.6868 130.115 17.5534 131.441 18.9621C132.951 20.5676 134.847 21.373 137.128 21.373C139.453 21.373 141.36 20.5622 142.865 18.9405C144.133 17.5686 144.865 15.7092 145.06 13.3622H148.255Z" fill="#757575"/>
<path fill-rule="evenodd" clip-rule="evenodd" d="M158.212 23.6109V5.83787H161.308V23.6109H158.212ZM158.212 3.11349H150.52V0.38916H169V3.11349H161.308H158.212Z" fill="#757575" stroke="#757575" stroke-width="0.288"/>
<path fill-rule="evenodd" clip-rule="evenodd" d="M50.7217 23.6109V14.8565L53.8181 11.876V11.9027L65.4107 0.38916H69.5936L59.8045 9.80541L70.0173 23.6109H65.9431L57.6371 11.8919L53.8181 15.5676V23.6109H50.7217ZM50.7217 11.1089V0.38916H53.8181V8.03356L50.7217 11.1089Z" fill="#1DA1F2" stroke="#1DA1F2" stroke-width="0.288"/>
</svg>
